PathFileType	4	(X/Y/Z)	Walk7.trc
DataRate	CameraRate	NumFrames	NumMarkers	Units	OrigDataRate	OrigDataStartFrame	OrigNumFrames
200.000000	200.000000	6	71	mm	200.000000	573	658
Frame#	Times		T10		RPSI		LowerBodyModelVer		RTH4		RElbow		C7		LBHD		LToe		LMT5		RBHD		RBack		LMT1		LTB1		LWRU		LLMAL		LTB3		RTH2		RUA1		LElbowM		LTB4		LLFC		LTB2		LTH3		RLFC		LACR1		RTB2		RTH3		RMFC		RKJC		RTB3		LASI		LElbow		LUA1		RTB1		RToe		LMFC		LKJC		RFA1		RWRU		RCAR		RMT1		RTB4		RWRR		RCAL		RMT5		RMMAL		RLMAL		LFHD		RFHD		LPSI		SACR		LCAR		LMMAL		LTH4		LCAL		RASI		LTH1		LHJC		MidPelvis		OPelvis		PELOrigin		RHJC		XPelvis		YPelvis		ZPelvis		LWRR		LTH2		RTH1		RACR1		RElbowM		STRN
			X1	Y1	Z1	X2	Y2	Z2	X3	Y3	Z3	X4	Y4	Z4	X5	Y5	Z5	X6	Y6	Z6	X7	Y7	Z7	X8	Y8	Z8	X9	Y9	Z9	X10	Y10	Z10	X11	Y11	Z11	X12	Y12	Z12	X13	Y13	Z13	X14	Y14	Z14	X15	Y15	Z15	X16	Y16	Z16	X17	Y17	Z17	X18	Y18	Z18	X19	Y19	Z19	X20	Y20	Z20	X21	Y21	Z21	X22	Y22	Z22	X23	Y23	Z23	X24	Y24	Z24	X25	Y25	Z25	X26	Y26	Z26	X27	Y27	Z27	X28	Y28	Z28	X29	Y29	Z29	X30	Y30	Z30	X31	Y31	Z31	X32	Y32	Z32	X33	Y33	Z33	X34	Y34	Z34	X35	Y35	Z35	X36	Y36	Z36	X37	Y37	Z37	X38	Y38	Z38	X39	Y39	Z39	X40	Y40	Z40	X41	Y41	Z41	X42	Y42	Z42	X43	Y43	Z43	X44	Y44	Z44	X45	Y45	Z45	X46	Y46	Z46	X47	Y47	Z47	X48	Y48	Z48	X49	Y49	Z49	X50	Y50	Z50	X51	Y51	Z51	X52	Y52	Z52	X53	Y53	Z53	X54	Y54	Z54	X55	Y55	Z55	X56	Y56	Z56	X57	Y57	Z57	X58	Y58	Z58	X59	Y59	Z59	X60	Y60	Z60	X61	Y61	Z61	X62	Y62	Z62	X63	Y63	Z63	X64	Y64	Z64	X65	Y65	Z65	X66	Y66	Z66	X67	Y67	Z67	X68	Y68	Z68	X69	Y69	Z69	X70	Y70	Z70	X71	Y71	Z71

573	2.865	467.38	1216.2	-20.165	442.23	1033	7.4923	9	2014	4	575.57	632.54	142.43	510.64	1084.2	193.25	553.58	1470.3	-27.323	587.92	1598.1	-94.125	924.37	56.418	-72.51	844.17	25.116	-132.64	590.18	1594.6	42.767	532.89	1362.5	130.5	882.38	32.424	-55.663	756.88	402.08	-58.658	482.98	805.81	-305.35	728.49	59.673	-109.05	758.21	216.6	-57.407	637	638.91	101.2	626.84	1238.4	218.87	456.12	1089.3	-223.71	756.47	309.29	-57.142	697.26	520.49	-143.06	750.66	308.33	-129.18	698.67	585.5	-146.17	570.71	492.42	122.53	640.63	1400.8	-196.06	445.87	294.71	114.11	574.92	538.98	125.45	538.44	464.86	-2.8658	554.57	478.64	59.83	388.4	226.49	39.226	650.2	1016.5	-170.34	496.92	1087.1	-298.94	570.76	1208.1	-266.71	525.53	352.43	39.485	394.38	21.741	87.788	682.39	496.12	-15.152	689.83	508.3	-79.107	589.13	925.09	272.61	612.72	806.89	241.82	683.31	793.64	266.72	351.51	29.178	45.907	454.63	285.9	38.575	686.81	839.71	218.29	200.54	164.18	23.46	313.72	48.064	116.41	289.14	144.67	12.775	258.99	162.34	87.635	766.24	1628.5	-65.827	767.6	1626.4	16.308	450.53	1031.2	-61.51	446.38	1032.1	-27.009	546.98	769.53	-292.09	751.99	71.609	-28.2	671.3	674.12	-169.96	667.18	33.15	-58.677	624.89	982.83	133.42	643.98	760.86	-189.97	559.66	927.17	-138.25	541.96	1015.9	-22.735	637.54	999.67	-18.462	637.54	999.67	-18.462	542.44	904.28	68.305	716.23	986.12	-13.404	650.4	1078	-8.706	630.94	990.88	60.78	547.33	812.88	-252.71	724.83	698.47	-125.32	568.92	728.68	153.72	664.05	1413.6	127.06	549.9	1082.7	270.14	757.43	1220.1	-27.894
574	2.87	472.38	1216.6	-21.031	447.16	1033	6.7136	9	2014	4	584.63	632.82	142.53	515.16	1085.6	191.95	558.4	1470.5	-28.083	593.04	1598.5	-94.974	925.54	55.237	-72.29	844.64	25.02	-132.65	595.15	1595	42.002	537.72	1363	129.95	882.57	32.039	-55.332	759.53	401.66	-58.244	490.96	806.09	-306.16	728.92	59.657	-108.96	759.44	216.22	-57.148	645.64	639.59	100.99	631.53	1238.9	217.79	462.75	1089.2	-224.44	758.51	308.86	-56.729	700.29	520.87	-143.08	753.49	308.01	-128.77	702.72	585.96	-146.76	581.42	492.51	123.29	645.8	1401.5	-196.64	454.83	296.69	114.86	585.12	539.1	125.63	550.94	464.11	-2.2775	566.18	478.31	60.506	396.71	229.01	40.283	655.34	1017.2	-171.14	503.65	1087.2	-299.75	577.02	1208.4	-267.31	535.5	354.11	38.468	395.54	21.881	87.905	686.28	496.58	-15.486	693.28	508.72	-79.284	593.24	925.93	271.44	616.36	807.51	240.32	686.92	793.98	265.74	353.05	29.799	45.52	463.61	287.54	39.394	690.61	839.93	217.54	208.08	170.42	24.605	318.5	51.225	116.02	296.21	148.26	13.506	266.5	166.63	88.887	771.24	1628.7	-66.631	772.51	1626.5	15.554	455.61	1031.2	-62.224	451.39	1032.1	-27.755	555.42	769.92	-293.17	752.13	71.458	-27.941	676.65	674.7	-170.99	667.22	33.277	-58.666	630.07	983.25	132.51	649.63	761.9	-190.36	565.09	927.62	-139.15	547.05	1016.2	-23.535	642.71	1000.2	-19.315	642.71	1000.2	-19.315	547.91	904.51	67.335	721.43	986.94	-14.252	655.32	1078.6	-9.4946	636.11	991.38	59.918	554.4	812.82	-253.13	729.33	698.52	-125.04	576.77	728.76	153.27	668.81	1414.1	126.15	554.17	1083.6	269.48	762.5	1220.6	-28.601
575	2.875	477.44	1216.7	-21.861	452.2	1032.9	6.1792	9	2014	4	593.95	633.2	142.85	519.37	1086.4	191.01	563.08	1470.9	-29.038	598.15	1599	-95.907	926.31	53.955	-72.084	844.84	24.858	-132.68	600.04	1595.5	41.378	542.48	1363.3	129.41	882.92	31.703	-54.917	761.79	401.17	-57.624	499.14	805.96	-307.14	729.17	59.64	-108.85	761.18	215.98	-57.086	654.51	640.34	100.6	636.26	1239.4	216.99	469.38	1089	-225.41	760.33	308.39	-56.307	703.52	521.04	-143.55	756.17	307.64	-128.36	705.95	585.87	-147.81	592.24	492.78	123.85	650.96	1402	-197.22	463.93	298.78	115.68	595.16	538.88	125.91	563.29	463.55	-2.068	577.77	478.16	60.893	405.09	231.53	41.107	660.39	1017.8	-172.01	510.47	1087.1	-300.53	583.22	1208.5	-267.97	545.1	355.65	38.218	397.76	22.471	87.166	690.08	496.8	-16.103	696.8	508.92	-79.826	597.22	926.46	270.33	619.95	808.14	239.16	690.49	794.32	264.73	355.13	31.379	45.118	472.71	289.17	40.144	694.44	840.26	216.55	215.69	176.24	25.806	323.66	54.291	116	303.18	151.74	14.553	274.52	170.93	89.838	776.08	1628.7	-67.325	777.21	1626.6	15.046	460.63	1031.5	-62.848	456.42	1032.2	-28.334	563.82	770.22	-294.1	752.2	71.219	-27.709	681.23	675.11	-172.03	667.23	33.326	-58.711	634.84	983.54	132.08	654.9	762.56	-190.76	570.1	927.9	-140.11	552.02	1016.4	-24.149	647.62	1000.7	-19.964	647.62	1000.7	-19.964	552.73	904.61	66.669	726.35	987.47	-14.835	660.11	1079.1	-10.082	640.96	991.75	59.257	562.19	812.79	-253.81	733.38	698.17	-125.2	584.19	728.93	153.08	673.59	1414.6	125.2	558.35	1084.1	268.6	767.62	1221.2	-29.389
576	2.88	482.19	1216.7	-22.396	457.16	1032.9	5.3095	9	2014	4	602.7	633.31	142.94	523.51	1087.1	190.31	567.79	1471.3	-29.777	602.83	1599.4	-96.442	927.08	52.731	-72.051	845	24.69	-132.75	604.91	1596	40.519	547.03	1363.9	128.56	883.4	31.482	-54.589	764.23	400.62	-57.199	507.23	805.71	-307.99	729.32	59.618	-108.67	762.61	215.53	-56.904	663.29	641.25	100.44	640.59	1239.9	216.32	475.83	1088.8	-226.43	762.33	308.13	-56.048	706.54	520.98	-143.76	758.89	307.3	-128.16	708.75	585.53	-148.98	602.63	493.1	124.34	656.08	1402.5	-197.84	473.09	300.83	116.3	605.08	539.04	126.41	575.24	463.42	-1.9246	588.94	478.26	61.207	413.34	234.06	41.96	665.32	1018.4	-172.94	517.03	1087	-301.34	589.35	1208.7	-268.6	554.52	356.84	38.411	402.01	25.019	86.092	693.87	496.98	-16.581	700.21	508.98	-80.171	600.97	926.71	269.4	623.66	808.46	238.14	694.11	794.55	263.82	359.06	34.179	45.097	481.71	290.75	40.825	698.49	840.81	215.5	223.05	181.62	26.965	329.31	57.276	116.26	310.1	155.3	15.544	281.75	175.02	90.666	781.07	1629	-68.113	782.33	1626.9	14.063	465.44	1031.6	-63.664	461.3	1032.3	-29.177	572.29	770.51	-295.07	752.33	71.002	-27.474	685.2	675.27	-173.08	667.32	33.333	-58.708	639.52	983.75	131.72	659.92	763.05	-191.47	574.98	928.09	-141.12	556.86	1016.7	-24.893	652.42	1001.1	-20.608	652.42	1001.1	-20.608	557.44	904.56	66.056	731.17	987.98	-15.424	664.78	1079.5	-10.656	645.71	992.06	58.601	570.51	813.09	-254.75	737.17	697.37	-125.59	592.29	729.39	152.62	678.2	1415	124.39	562.48	1084.5	267.77	772.22	1221.6	-29.858
577	2.885	487.17	1217	-23.244	462.09	1032.8	4.6865	9	2014	4	611.54	633.88	143	527.58	1087.5	189.73	572.54	1471.8	-30.504	607.52	1599.7	-96.941	927.87	51.606	-72.331	845.32	24.629	-132.6	609.85	1596.6	39.929	551.37	1364.2	127.7	883.74	31.341	-54.483	766.51	400.35	-56.912	515.44	805.46	-308.65	729.49	59.562	-108.54	763.56	215.08	-56.571	671.53	641.65	100.55	645.14	1240.5	215.33	482.4	1088.6	-227.27	764.16	307.74	-55.819	708.99	520.21	-143.66	761.36	306.9	-127.88	711.52	585.13	-150.47	612.34	493.3	124.76	661.2	1403	-198.41	482.07	302.5	116.97	614.68	539.55	126.98	589.21	463.67	0.0069276	600.77	478.48	62.385	421.34	236.38	42.894	670.24	1019	-173.6	523.53	1086.8	-302.16	595.4	1208.9	-269.13	563.77	357.56	39.145	408.9	28.851	84.972	697.52	497.17	-16.739	703.26	508.69	-80.201	604.78	927.03	268.48	627.43	809.1	237	697.49	794.87	262.78	365.55	38.029	45.509	490.49	292.42	41.391	702.44	841.28	214.35	230.24	186.22	28.427	335.75	60.393	117.21	316.84	159.06	16.27	289.15	179	91.846	786.13	1629.2	-68.906	787.53	1627.3	13.216	470.48	1031.7	-64.188	466.28	1032.2	-29.751	580.71	770.58	-295.91	752.44	70.96	-27.091	689.33	675.19	-174.2	667.43	33.365	-58.69	644.54	983.98	131.2	664.59	763.25	-192.05	580.08	928.4	-141.84	561.84	1016.8	-25.475	657.39	1001.5	-21.199	657.39	1001.5	-21.199	562.6	904.61	65.425	736.18	988.59	-16.034	669.56	1079.9	-11.169	650.71	992.38	58.002	579.25	813.32	-255.82	740.85	696.18	-126.58	600.92	729.99	152.01	682.66	1415.4	123.73	566.76	1085.2	266.83	776.57	1221.9	-29.98
578	2.89	491.93	1217.3	-24.321	466.74	1032.7	3.859	9	2014	4	620.2	634.19	142.91	531.8	1088.6	188.8	577.08	1472	-31.321	612.3	1600.2	-97.577	928.81	50.552	-72.534	845.08	24.009	-132.74	614.5	1597.1	39.206	555.95	1364.5	127.16	884.2	32.322	-52.583	769.09	400.12	-56.844	523.65	805.21	-309.39	729.4	59.133	-108.22	764.84	214.79	-56.354	679.7	642.63	100.82	649.54	1241	214.49	489	1088.1	-228.28	766.16	307.43	-55.746	712.41	519.88	-144.04	763.84	306.62	-127.93	714	584.46	-152.02	621.84	493.76	125.16	666.22	1403.4	-198.97	491.2	304.34	117.95	623.98	540.26	127.69	598.79	464.54	-0.8625	610.32	479.15	62.147	429.35	238.63	43.745	674.97	1019.5	-174.3	530.16	1086.6	-303.01	601.57	1208.9	-269.99	573.08	357.74	40.041	416.7	32.158	84.915	701.09	497.58	-16.483	706.75	508.73	-80.259	608.59	927.59	267.33	630.98	809.51	235.91	701.03	795.11	261.72	373	41.859	45.992	499	294.14	41.905	706.21	841.59	213.48	237.3	189.99	30.211	343.14	64.014	117.74	323.71	163.22	16.678	296.86	182.72	92.58	790.81	1629.4	-69.541	792.13	1627.6	12.529	475.36	1031.8	-64.732	471.05	1032.2	-30.436	589.2	770.82	-296.64	752.74	70.648	-26.998	692.44	674.81	-175.08	667.46	33.431	-58.68	649.67	984.1	130.79	669.05	763.24	-192.9	584.95	928.65	-142.5	566.69	1017	-26.095	662.32	1001.8	-21.754	662.32	1001.8	-21.754	567.75	904.57	64.953	741.14	989.08	-16.696	674.34	1080.3	-11.651	655.75	992.62	57.444	588.13	813.76	-256.86	745.02	694.92	-128.24	609	730.41	151.4	686.97	1415.9	123.22	570.81	1085.7	266.14	780.97	1222.2	-30.167
